# xmcd
#
# Track frame offsets:
#   150
#   21545
#   36175
#   55495
#   86610
#   99546
#   131959
#   142417
#   170691
#   198346
#   240146
#   263122
#   275918
#
# Disc length: 4251 seconds
#
# Revision: 0
# Processed by: cddbd v1.5.1PL2 Copyright (c) Steve Scherf et al.
# Submitted via: uFREEDB 1.6.0
#
DISCID=ca10990d
DTITLE=Gary Moore - Back To The Blues
DYEAR=2001
DGENRE=Blues
TTITLE0=Enough of the Blues
TTITLE1=You Upset Me Baby
TTITLE2=Cold Black Night
TTITLE3=Stormy Monday
TTITLE4=Ain't Got You
TTITLE5=Picture of the Moon
TTITLE6=Looking Back
TTITLE7=The Prophet
TTITLE8=How Many Lies
TTITLE9=Drowning in Tears
TTITLE10=Go On Home (Bonus Track)
TTITLE11=Lost In Your Love (Bonus Track)
TTITLE12=Worry No More (Bonus Track)
EXTD=
EXTT0=
EXTT1=
EXTT2=
EXTT3=
EXTT4=
EXTT5=
EXTT6=
EXTT7=
EXTT8=
EXTT9=
EXTT10=
EXTT11=
EXTT12=
PLAYORDER=
